name rise31.4854peak64.571fall78.6902.mot
datacolumns 19
datarows 17
range 14.34160900000000 14.36828100000000
endheader
time	ground_force1_vx	ground_force1_vy	ground_force1_vz	ground_force1_px	ground_force1_py	ground_force1_pz	ground_force2_vx	ground_force2_vy	ground_force2_vz	ground_force2_px	ground_force2_py	ground_force2_pz	ground_torque1_x	ground_torque1_y	ground_torque1_z	ground_torque2_x	ground_torque2_y	ground_torque2_z	
14.34160900000000	-6.62133300000000	43.94256000000000	-12.42811000000000	0.28275000000000	0.00000000000000	0.07757500000000	-52.66187700000000	757.94693500000005	-39.85023400000000	0.10747900000000	0.00000000000000	-0.08328900000000	0.00000000000000	-8.14906500000000	0.00000000000000	0.00000000000000	-15.92325600000000	0.00000000000000	
14.34327600000000	-7.10009200000000	51.72006800000000	-13.99453500000000	0.28999400000000	0.00000000000000	0.07864300000000	-53.31870100000000	754.93544899999995	-39.40274200000000	0.10667600000000	0.00000000000000	-0.08318300000000	0.00000000000000	-9.31221200000000	0.00000000000000	0.00000000000000	-15.90850700000000	0.00000000000000	
14.34495100000000	-7.40983200000000	59.65206100000000	-15.42529100000000	0.29651600000000	0.00000000000000	0.07959900000000	-53.99610600000000	751.83244999999999	-38.93784900000000	0.10587600000000	0.00000000000000	-0.08307300000000	0.00000000000000	-10.40862800000000	0.00000000000000	0.00000000000000	-15.89706500000000	0.00000000000000	
14.34661800000000	-7.53213300000000	67.64075099999999	-16.68773700000000	0.30243700000000	0.00000000000000	0.08046000000000	-54.69301800000000	748.63533600000005	-38.45532300000000	0.10507800000000	0.00000000000000	-0.08295900000000	0.00000000000000	-11.41358000000000	0.00000000000000	0.00000000000000	-15.88872500000000	0.00000000000000	
14.34828400000000	-7.45718700000000	75.61073700000000	-17.76017500000000	0.30785200000000	0.00000000000000	0.08124200000000	-55.40823500000000	745.34141499999998	-37.95494600000000	0.10428300000000	0.00000000000000	-0.08283900000000	0.00000000000000	-12.30940600000000	0.00000000000000	0.00000000000000	-15.88326000000000	0.00000000000000	
14.34995000000000	-7.18351300000000	83.51151000000000	-18.63200800000000	0.31283700000000	0.00000000000000	0.08195600000000	-56.14043300000000	741.94791299999997	-37.43652300000000	0.10349400000000	0.00000000000000	-0.08271500000000	0.00000000000000	-13.08586500000000	0.00000000000000	0.00000000000000	-15.88041600000000	0.00000000000000	
14.35161500000000	-6.71705000000000	91.31750500000000	-19.30296400000000	0.31745400000000	0.00000000000000	0.08261300000000	-56.88816600000000	738.45198900000003	-36.89988000000000	0.10271000000000	0.00000000000000	-0.08258700000000	0.00000000000000	-13.73982700000000	0.00000000000000	0.00000000000000	-15.87991800000000	0.00000000000000	
14.35327800000000	-6.06979400000000	99.02606600000000	-19.78160900000000	0.32175000000000	0.00000000000000	0.08321900000000	-57.64986800000000	734.85074299999997	-36.34486900000000	0.10193400000000	0.00000000000000	-0.08245300000000	0.00000000000000	-14.27443800000000	0.00000000000000	0.00000000000000	-15.88146800000000	0.00000000000000	
14.35494800000000	-5.25817200000000	106.65389100000000	-20.08339100000000	0.32576600000000	0.00000000000000	0.08378200000000	-58.42385700000000	731.14122799999996	-35.77137000000000	0.10116600000000	0.00000000000000	-0.08231500000000	0.00000000000000	-14.69789900000000	0.00000000000000	0.00000000000000	-15.88474600000000	0.00000000000000	
14.35661300000000	-4.30133900000000	114.23249199999999	-20.22845900000000	0.32953700000000	0.00000000000000	0.08430500000000	-59.20833900000000	727.32046400000002	-35.17929600000000	0.10040700000000	0.00000000000000	-0.08217100000000	0.00000000000000	-15.02204800000000	0.00000000000000	0.00000000000000	-15.88941000000000	0.00000000000000	
14.35828400000000	-3.21954100000000	121.80321800000000	-20.23947800000000	0.33308800000000	0.00000000000000	0.08479500000000	-60.00140800000000	723.38544899999999	-34.56859600000000	0.09965800000000	0.00000000000000	-0.08202300000000	0.00000000000000	-15.26088600000000	0.00000000000000	0.00000000000000	-15.89510100000000	0.00000000000000	
14.35994300000000	-2.03267500000000	129.41234299999999	-20.13961800000000	0.33644400000000	0.00000000000000	0.08525500000000	-60.80105800000000	719.33317399999999	-33.93925600000000	0.09892100000000	0.00000000000000	-0.08187000000000	0.00000000000000	-15.42918300000000	0.00000000000000	0.00000000000000	-15.90144200000000	0.00000000000000	
14.36161700000000	-0.75912500000000	137.10657499999999	-19.95084900000000	0.33962400000000	0.00000000000000	0.08568700000000	-61.60518200000000	715.16063699999995	-33.29130400000000	0.09819600000000	0.00000000000000	-0.08171100000000	0.00000000000000	-15.54125000000000	0.00000000000000	0.00000000000000	-15.90803600000000	0.00000000000000	
14.36328000000000	0.58509100000000	144.92928000000001	-19.69262300000000	0.34264400000000	0.00000000000000	0.08609500000000	-62.41158000000000	710.86485500000003	-32.62481300000000	0.09748600000000	0.00000000000000	-0.08154800000000	0.00000000000000	-15.60997200000000	0.00000000000000	0.00000000000000	-15.91447500000000	0.00000000000000	
14.36494400000000	1.98683600000000	152.91758400000001	-19.38096900000000	0.34551800000000	0.00000000000000	0.08648000000000	-63.21796500000000	706.44288200000005	-31.93990300000000	0.09679000000000	0.00000000000000	-0.08137900000000	0.00000000000000	-15.64610600000000	0.00000000000000	0.00000000000000	-15.92033400000000	0.00000000000000	
14.36661700000000	3.43606700000000	161.10041699999999	-19.02801800000000	0.34825900000000	0.00000000000000	0.08684500000000	-64.02197300000000	701.89182200000005	-31.23674400000000	0.09610900000000	0.00000000000000	-0.08120600000000	0.00000000000000	-15.65786900000000	0.00000000000000	0.00000000000000	-15.92518000000000	0.00000000000000	
14.36828100000000	4.92577200000000	169.49748399999999	-18.64189700000000	0.35087600000000	0.00000000000000	0.08719200000000	-64.82116300000000	697.20884599999999	-30.51555800000000	0.09544600000000	0.00000000000000	-0.08102700000000	0.00000000000000	-15.65079300000000	0.00000000000000	0.00000000000000	-15.92856500000000	0.00000000000000	
